<svg width="39" height="110" viewBox="0 0 39 110" fill="none" xmlns="http://www.w3.org/2000/svg">
<path d="M3.12957 40.9296C3.67637 35.8504 7.96358 32 13.0721 32H22.9278C28.0364 32 32.3236 35.8504 32.8704 40.9296L36 70H33.5455L28.2273 55.2222V70H7.36364V55.2222L2.45455 70H0L3.12957 40.9296Z" fill="#1A64AC"/>
<path d="M8 70H28V110H23.3846L18 82L14.1538 110H8V70Z" fill="#81AFCD"/>
<circle cx="17.5" cy="21.5" r="11.5" fill="#FCE5E5"/>
<ellipse cx="12.4688" cy="20.4545" rx="1.4375" ry="1.39394" fill="#C4C4C4"/>
<ellipse cx="22.5312" cy="20.4545" rx="1.4375" ry="1.39394" fill="#C4C4C4"/>
<path d="M13.1875 24.9849L13.5732 25.5726C15.604 28.6671 20.2415 28.3363 21.8125 24.9849V24.9849" stroke="black"/>
<rect x="9" y="4" width="17" height="8" fill="url(#paint0_linear)"/>
<ellipse cx="17" cy="3.5" rx="17" ry="3.5" fill="#0A0A0A"/>
<path d="M26.6122 5.51123L28.6671 3.30041L37.8368 9.81305L35.0159 13.3222L26.6122 5.51123Z" fill="#131313"/>
<defs>
<linearGradient id="paint0_linear" x1="17.5" y1="4" x2="17.5" y2="12" gradientUnits="userSpaceOnUse">
<stop stop-color="#0D0D0D"/>
<stop offset="1" stop-color="#3E3A3A"/>
</linearGradient>
</defs>
</svg>
