<svg width="36" height="100" viewBox="0 0 36 100" fill="none" xmlns="http://www.w3.org/2000/svg">
<path d="M3.12957 30.9296C3.67637 25.8504 7.96358 22 13.0721 22H22.9278C28.0364 22 32.3236 25.8504 32.8704 30.9296L36 60H33.5455L28.2273 45.2222V60H7.36364V45.2222L2.45455 60H0L3.12957 30.9296Z" fill="#1A64AC"/>
<path d="M8 60H28V100H23.3846L18 72L14.1538 100H8V60Z" fill="#81AFCD"/>
<circle cx="17.5" cy="11.5" r="11.5" fill="#FCE5E5"/>
<ellipse cx="12.4688" cy="10.4545" rx="1.4375" ry="1.39394" fill="#C4C4C4"/>
<ellipse cx="22.5312" cy="10.4545" rx="1.4375" ry="1.39394" fill="#C4C4C4"/>
<path d="M13.1875 14.9849L13.5732 15.5726C15.604 18.6671 20.2415 18.3363 21.8125 14.9849V14.9849" stroke="black"/>
</svg>
